<mxfile host="app.diagrams.net" agent="Mozilla/5.0 (Windows NT 10.0; Win64; x64) AppleWebKit/537.36 (KHTML, like Gecko) Chrome/128.0.0.0 Safari/537.36" version="24.7.8">
  <diagram name="Page-1" id="jFCorRqVwIcgnSAANbfP">
    <mxGraphModel dx="4037" dy="2793" grid="1" gridSize="10" guides="1" tooltips="1" connect="1" arrows="1" fold="1" page="1" pageScale="1" pageWidth="850" pageHeight="1100" math="0" shadow="0">
      <root>
        <mxCell id="0" />
        <mxCell id="1" parent="0" />
        <mxCell id="XNVu2m3pQ130uXgLmZe--70" value="" style="rounded=0;whiteSpace=wrap;html=1;" vertex="1" parent="1">
          <mxGeometry x="-610" y="-830" width="2125" height="2640" as="geometry" />
        </mxCell>
        <mxCell id="XNVu2m3pQ130uXgLmZe--15" style="edgeStyle=orthogonalEdgeStyle;rounded=0;orthogonalLoop=1;jettySize=auto;html=1;exitX=0.75;exitY=0;exitDx=0;exitDy=0;entryX=0;entryY=0.5;entryDx=0;entryDy=0;endArrow=none;endFill=0;" edge="1" parent="1" source="SJhPn0XpCKg0EyMPji_I-2" target="XNVu2m3pQ130uXgLmZe--8">
          <mxGeometry relative="1" as="geometry" />
        </mxCell>
        <mxCell id="XNVu2m3pQ130uXgLmZe--16" style="edgeStyle=orthogonalEdgeStyle;rounded=0;orthogonalLoop=1;jettySize=auto;html=1;exitX=0.25;exitY=0;exitDx=0;exitDy=0;entryX=1;entryY=0.5;entryDx=0;entryDy=0;endArrow=none;endFill=0;" edge="1" parent="1" source="SJhPn0XpCKg0EyMPji_I-2" target="XNVu2m3pQ130uXgLmZe--9">
          <mxGeometry relative="1" as="geometry" />
        </mxCell>
        <mxCell id="XNVu2m3pQ130uXgLmZe--17" style="edgeStyle=orthogonalEdgeStyle;rounded=0;orthogonalLoop=1;jettySize=auto;html=1;exitX=0;exitY=0.25;exitDx=0;exitDy=0;endArrow=none;endFill=0;" edge="1" parent="1" source="SJhPn0XpCKg0EyMPji_I-2" target="XNVu2m3pQ130uXgLmZe--10">
          <mxGeometry relative="1" as="geometry" />
        </mxCell>
        <mxCell id="XNVu2m3pQ130uXgLmZe--19" style="edgeStyle=orthogonalEdgeStyle;rounded=0;orthogonalLoop=1;jettySize=auto;html=1;exitX=0.75;exitY=1;exitDx=0;exitDy=0;entryX=0;entryY=0.5;entryDx=0;entryDy=0;endArrow=none;endFill=0;" edge="1" parent="1" source="SJhPn0XpCKg0EyMPji_I-2" target="XNVu2m3pQ130uXgLmZe--12">
          <mxGeometry relative="1" as="geometry" />
        </mxCell>
        <mxCell id="XNVu2m3pQ130uXgLmZe--20" style="edgeStyle=orthogonalEdgeStyle;rounded=0;orthogonalLoop=1;jettySize=auto;html=1;exitX=1;exitY=0.75;exitDx=0;exitDy=0;entryX=0.5;entryY=0;entryDx=0;entryDy=0;endArrow=none;endFill=0;" edge="1" parent="1" source="SJhPn0XpCKg0EyMPji_I-2" target="XNVu2m3pQ130uXgLmZe--13">
          <mxGeometry relative="1" as="geometry" />
        </mxCell>
        <mxCell id="XNVu2m3pQ130uXgLmZe--26" style="edgeStyle=orthogonalEdgeStyle;rounded=0;orthogonalLoop=1;jettySize=auto;html=1;exitX=0;exitY=0.75;exitDx=0;exitDy=0;" edge="1" parent="1" source="SJhPn0XpCKg0EyMPji_I-2" target="XNVu2m3pQ130uXgLmZe--11">
          <mxGeometry relative="1" as="geometry" />
        </mxCell>
        <mxCell id="XNVu2m3pQ130uXgLmZe--27" style="edgeStyle=orthogonalEdgeStyle;rounded=0;orthogonalLoop=1;jettySize=auto;html=1;exitX=0.25;exitY=1;exitDx=0;exitDy=0;entryX=1;entryY=0.5;entryDx=0;entryDy=0;" edge="1" parent="1" source="SJhPn0XpCKg0EyMPji_I-2" target="XNVu2m3pQ130uXgLmZe--7">
          <mxGeometry relative="1" as="geometry" />
        </mxCell>
        <mxCell id="XNVu2m3pQ130uXgLmZe--31" style="edgeStyle=orthogonalEdgeStyle;rounded=0;orthogonalLoop=1;jettySize=auto;html=1;exitX=0.5;exitY=0;exitDx=0;exitDy=0;entryX=0.5;entryY=1;entryDx=0;entryDy=0;endArrow=none;endFill=0;shape=link;" edge="1" parent="1" source="SJhPn0XpCKg0EyMPji_I-2" target="XNVu2m3pQ130uXgLmZe--30">
          <mxGeometry relative="1" as="geometry" />
        </mxCell>
        <mxCell id="XNVu2m3pQ130uXgLmZe--38" value="N" style="edgeLabel;html=1;align=center;verticalAlign=middle;resizable=0;points=[];fontSize=17;fontStyle=1" vertex="1" connectable="0" parent="XNVu2m3pQ130uXgLmZe--31">
          <mxGeometry x="-0.7812" y="-1" relative="1" as="geometry">
            <mxPoint x="-2" as="offset" />
          </mxGeometry>
        </mxCell>
        <mxCell id="SJhPn0XpCKg0EyMPji_I-2" value="Doctor" style="rounded=0;whiteSpace=wrap;html=1;shadow=0;fontStyle=1;fontSize=15;" parent="1" vertex="1">
          <mxGeometry x="-247" y="1016" width="120" height="60" as="geometry" />
        </mxCell>
        <mxCell id="VN0yVY5uS7CeXmlR8bmi-15" style="edgeStyle=orthogonalEdgeStyle;rounded=0;orthogonalLoop=1;jettySize=auto;html=1;exitX=0.25;exitY=0;exitDx=0;exitDy=0;entryX=1;entryY=0.5;entryDx=0;entryDy=0;endArrow=none;endFill=0;" parent="1" source="SJhPn0XpCKg0EyMPji_I-13" target="VN0yVY5uS7CeXmlR8bmi-12" edge="1">
          <mxGeometry relative="1" as="geometry" />
        </mxCell>
        <mxCell id="VN0yVY5uS7CeXmlR8bmi-19" value="N" style="edgeLabel;html=1;align=center;verticalAlign=middle;resizable=0;points=[];fontSize=17;fontStyle=1" parent="VN0yVY5uS7CeXmlR8bmi-15" vertex="1" connectable="0">
          <mxGeometry x="-0.8221" y="1" relative="1" as="geometry">
            <mxPoint y="28" as="offset" />
          </mxGeometry>
        </mxCell>
        <mxCell id="VN0yVY5uS7CeXmlR8bmi-16" style="edgeStyle=orthogonalEdgeStyle;rounded=0;orthogonalLoop=1;jettySize=auto;html=1;exitX=0.5;exitY=0;exitDx=0;exitDy=0;entryX=1;entryY=0.5;entryDx=0;entryDy=0;endArrow=none;endFill=0;" parent="1" source="SJhPn0XpCKg0EyMPji_I-13" target="eJS6RQ6NcchhUuec16Ap-17" edge="1">
          <mxGeometry relative="1" as="geometry" />
        </mxCell>
        <mxCell id="VN0yVY5uS7CeXmlR8bmi-21" value="1" style="edgeLabel;html=1;align=center;verticalAlign=middle;resizable=0;points=[];fontSize=17;fontStyle=1" parent="VN0yVY5uS7CeXmlR8bmi-16" vertex="1" connectable="0">
          <mxGeometry x="-0.8924" y="-1" relative="1" as="geometry">
            <mxPoint x="-2" y="5" as="offset" />
          </mxGeometry>
        </mxCell>
        <mxCell id="eJS6RQ6NcchhUuec16Ap-45" style="edgeStyle=orthogonalEdgeStyle;rounded=0;orthogonalLoop=1;jettySize=auto;html=1;exitX=0.75;exitY=0;exitDx=0;exitDy=0;entryX=0;entryY=0.5;entryDx=0;entryDy=0;endArrow=none;endFill=0;" parent="1" source="SJhPn0XpCKg0EyMPji_I-13" target="eJS6RQ6NcchhUuec16Ap-43" edge="1">
          <mxGeometry relative="1" as="geometry" />
        </mxCell>
        <mxCell id="eJS6RQ6NcchhUuec16Ap-46" style="edgeStyle=orthogonalEdgeStyle;rounded=0;orthogonalLoop=1;jettySize=auto;html=1;exitX=1;exitY=0.25;exitDx=0;exitDy=0;entryX=0;entryY=0.5;entryDx=0;entryDy=0;endArrow=none;endFill=0;" parent="1" source="SJhPn0XpCKg0EyMPji_I-13" target="eJS6RQ6NcchhUuec16Ap-44" edge="1">
          <mxGeometry relative="1" as="geometry" />
        </mxCell>
        <mxCell id="eJS6RQ6NcchhUuec16Ap-48" style="edgeStyle=orthogonalEdgeStyle;rounded=0;orthogonalLoop=1;jettySize=auto;html=1;exitX=1;exitY=0.5;exitDx=0;exitDy=0;endArrow=none;endFill=0;" parent="1" source="SJhPn0XpCKg0EyMPji_I-13" target="eJS6RQ6NcchhUuec16Ap-47" edge="1">
          <mxGeometry relative="1" as="geometry" />
        </mxCell>
        <mxCell id="eJS6RQ6NcchhUuec16Ap-50" style="edgeStyle=orthogonalEdgeStyle;rounded=0;orthogonalLoop=1;jettySize=auto;html=1;exitX=1;exitY=0.75;exitDx=0;exitDy=0;entryX=0;entryY=0.5;entryDx=0;entryDy=0;endArrow=none;endFill=0;" parent="1" source="SJhPn0XpCKg0EyMPji_I-13" target="eJS6RQ6NcchhUuec16Ap-49" edge="1">
          <mxGeometry relative="1" as="geometry" />
        </mxCell>
        <mxCell id="eJS6RQ6NcchhUuec16Ap-52" style="edgeStyle=orthogonalEdgeStyle;rounded=0;orthogonalLoop=1;jettySize=auto;html=1;exitX=0.75;exitY=1;exitDx=0;exitDy=0;entryX=0;entryY=0.5;entryDx=0;entryDy=0;endArrow=none;endFill=0;" parent="1" source="SJhPn0XpCKg0EyMPji_I-13" target="eJS6RQ6NcchhUuec16Ap-51" edge="1">
          <mxGeometry relative="1" as="geometry" />
        </mxCell>
        <mxCell id="XNVu2m3pQ130uXgLmZe--68" style="edgeStyle=orthogonalEdgeStyle;rounded=0;orthogonalLoop=1;jettySize=auto;html=1;exitX=0;exitY=0.25;exitDx=0;exitDy=0;entryX=1;entryY=0.5;entryDx=0;entryDy=0;endArrow=none;endFill=0;" edge="1" parent="1" source="SJhPn0XpCKg0EyMPji_I-13" target="XNVu2m3pQ130uXgLmZe--67">
          <mxGeometry relative="1" as="geometry" />
        </mxCell>
        <mxCell id="XNVu2m3pQ130uXgLmZe--69" style="edgeStyle=orthogonalEdgeStyle;rounded=0;orthogonalLoop=1;jettySize=auto;html=1;exitX=0;exitY=0.75;exitDx=0;exitDy=0;entryX=1;entryY=0.5;entryDx=0;entryDy=0;endArrow=none;endFill=0;" edge="1" parent="1" source="SJhPn0XpCKg0EyMPji_I-13" target="XNVu2m3pQ130uXgLmZe--61">
          <mxGeometry relative="1" as="geometry" />
        </mxCell>
        <mxCell id="SJhPn0XpCKg0EyMPji_I-13" value="Patient" style="rounded=0;whiteSpace=wrap;html=1;shadow=0;fontStyle=1;fontSize=15;" parent="1" vertex="1">
          <mxGeometry x="1023" y="1016" width="120" height="60" as="geometry" />
        </mxCell>
        <mxCell id="eJS6RQ6NcchhUuec16Ap-4" style="edgeStyle=orthogonalEdgeStyle;rounded=0;orthogonalLoop=1;jettySize=auto;html=1;entryX=0.5;entryY=1;entryDx=0;entryDy=0;endArrow=none;endFill=0;exitX=0.75;exitY=0;exitDx=0;exitDy=0;" parent="1" source="eJS6RQ6NcchhUuec16Ap-15" target="eJS6RQ6NcchhUuec16Ap-2" edge="1">
          <mxGeometry relative="1" as="geometry">
            <mxPoint x="492" y="1284" as="sourcePoint" />
          </mxGeometry>
        </mxCell>
        <mxCell id="SJhPn0XpCKg0EyMPji_I-36" style="edgeStyle=orthogonalEdgeStyle;rounded=0;orthogonalLoop=1;jettySize=auto;html=1;exitX=0.5;exitY=0;exitDx=0;exitDy=0;fontSize=17;fontStyle=1;endArrow=none;endFill=0;" parent="1" source="eJS6RQ6NcchhUuec16Ap-16" target="SJhPn0XpCKg0EyMPji_I-13" edge="1">
          <mxGeometry relative="1" as="geometry">
            <mxPoint x="1082.9999999999995" y="1256" as="sourcePoint" />
          </mxGeometry>
        </mxCell>
        <mxCell id="SJhPn0XpCKg0EyMPji_I-39" value="1" style="edgeLabel;html=1;align=center;verticalAlign=middle;resizable=0;points=[];fontSize=17;fontStyle=1" parent="SJhPn0XpCKg0EyMPji_I-36" vertex="1" connectable="0">
          <mxGeometry x="0.7602" y="3" relative="1" as="geometry">
            <mxPoint x="2" y="13" as="offset" />
          </mxGeometry>
        </mxCell>
        <mxCell id="SJhPn0XpCKg0EyMPji_I-37" style="edgeStyle=orthogonalEdgeStyle;rounded=0;orthogonalLoop=1;jettySize=auto;html=1;exitX=0;exitY=0.5;exitDx=0;exitDy=0;fontSize=17;fontStyle=1;endArrow=none;endFill=0;shape=link;entryX=1;entryY=0.5;entryDx=0;entryDy=0;" parent="1" source="eJS6RQ6NcchhUuec16Ap-16" target="eJS6RQ6NcchhUuec16Ap-15" edge="1">
          <mxGeometry relative="1" as="geometry">
            <mxPoint x="1032.9999999999995" y="1306" as="sourcePoint" />
          </mxGeometry>
        </mxCell>
        <mxCell id="SJhPn0XpCKg0EyMPji_I-38" value="N" style="edgeLabel;html=1;align=center;verticalAlign=middle;resizable=0;points=[];fontSize=17;fontStyle=1" parent="SJhPn0XpCKg0EyMPji_I-37" vertex="1" connectable="0">
          <mxGeometry x="0.9245" y="3" relative="1" as="geometry">
            <mxPoint x="25" y="-3" as="offset" />
          </mxGeometry>
        </mxCell>
        <mxCell id="eJS6RQ6NcchhUuec16Ap-29" style="edgeStyle=orthogonalEdgeStyle;rounded=0;orthogonalLoop=1;jettySize=auto;html=1;exitX=0.5;exitY=0;exitDx=0;exitDy=0;entryX=0.5;entryY=1;entryDx=0;entryDy=0;endArrow=none;endFill=0;" parent="1" source="SJhPn0XpCKg0EyMPji_I-42" target="eJS6RQ6NcchhUuec16Ap-28" edge="1">
          <mxGeometry relative="1" as="geometry" />
        </mxCell>
        <mxCell id="eJS6RQ6NcchhUuec16Ap-40" style="edgeStyle=orthogonalEdgeStyle;rounded=0;orthogonalLoop=1;jettySize=auto;html=1;exitX=0.75;exitY=1;exitDx=0;exitDy=0;entryX=0;entryY=0.5;entryDx=0;entryDy=0;endArrow=none;endFill=0;" parent="1" source="SJhPn0XpCKg0EyMPji_I-42" target="eJS6RQ6NcchhUuec16Ap-39" edge="1">
          <mxGeometry relative="1" as="geometry">
            <mxPoint x="520" y="17.25" as="targetPoint" />
          </mxGeometry>
        </mxCell>
        <mxCell id="SJhPn0XpCKg0EyMPji_I-42" value="Room" style="rounded=0;whiteSpace=wrap;html=1;shadow=0;fontStyle=1;fontSize=15;" parent="1" vertex="1">
          <mxGeometry x="365" y="-106" width="120" height="60" as="geometry" />
        </mxCell>
        <mxCell id="SJhPn0XpCKg0EyMPji_I-57" style="edgeStyle=orthogonalEdgeStyle;rounded=0;orthogonalLoop=1;jettySize=auto;html=1;exitX=0.5;exitY=0;exitDx=0;exitDy=0;entryX=0.5;entryY=1;entryDx=0;entryDy=0;endArrow=none;endFill=0;" parent="1" source="eJS6RQ6NcchhUuec16Ap-18" target="SJhPn0XpCKg0EyMPji_I-2" edge="1">
          <mxGeometry relative="1" as="geometry">
            <mxPoint x="-187" y="945" as="targetPoint" />
            <mxPoint x="-187" y="1325" as="sourcePoint" />
          </mxGeometry>
        </mxCell>
        <mxCell id="SJhPn0XpCKg0EyMPji_I-62" value="1" style="edgeLabel;html=1;align=center;verticalAlign=middle;resizable=0;points=[];fontSize=17;fontStyle=1" parent="SJhPn0XpCKg0EyMPji_I-57" vertex="1" connectable="0">
          <mxGeometry x="0.5894" relative="1" as="geometry">
            <mxPoint x="-1" y="3" as="offset" />
          </mxGeometry>
        </mxCell>
        <mxCell id="SJhPn0XpCKg0EyMPji_I-58" style="edgeStyle=orthogonalEdgeStyle;rounded=0;orthogonalLoop=1;jettySize=auto;html=1;exitX=1;exitY=0.5;exitDx=0;exitDy=0;endArrow=none;endFill=0;shape=link;entryX=0;entryY=0.5;entryDx=0;entryDy=0;" parent="1" source="eJS6RQ6NcchhUuec16Ap-18" target="eJS6RQ6NcchhUuec16Ap-15" edge="1">
          <mxGeometry relative="1" as="geometry">
            <mxPoint x="-137" y="1375" as="sourcePoint" />
          </mxGeometry>
        </mxCell>
        <mxCell id="SJhPn0XpCKg0EyMPji_I-61" value="N" style="edgeLabel;html=1;align=center;verticalAlign=middle;resizable=0;points=[];fontSize=17;fontStyle=1" parent="SJhPn0XpCKg0EyMPji_I-58" vertex="1" connectable="0">
          <mxGeometry x="0.557" y="1" relative="1" as="geometry">
            <mxPoint x="87" y="1" as="offset" />
          </mxGeometry>
        </mxCell>
        <mxCell id="VN0yVY5uS7CeXmlR8bmi-3" style="edgeStyle=orthogonalEdgeStyle;rounded=0;orthogonalLoop=1;jettySize=auto;html=1;exitX=1;exitY=0.5;exitDx=0;exitDy=0;entryX=0;entryY=0.5;entryDx=0;entryDy=0;endArrow=none;endFill=0;" parent="1" source="eJS6RQ6NcchhUuec16Ap-11" target="SJhPn0XpCKg0EyMPji_I-13" edge="1">
          <mxGeometry relative="1" as="geometry">
            <mxPoint x="760" y="1046" as="sourcePoint" />
          </mxGeometry>
        </mxCell>
        <mxCell id="VN0yVY5uS7CeXmlR8bmi-11" value="1" style="edgeLabel;html=1;align=center;verticalAlign=middle;resizable=0;points=[];fontSize=17;fontStyle=1" parent="VN0yVY5uS7CeXmlR8bmi-3" vertex="1" connectable="0">
          <mxGeometry x="0.5913" y="2" relative="1" as="geometry">
            <mxPoint x="-1" y="3" as="offset" />
          </mxGeometry>
        </mxCell>
        <mxCell id="VN0yVY5uS7CeXmlR8bmi-4" style="edgeStyle=orthogonalEdgeStyle;rounded=0;orthogonalLoop=1;jettySize=auto;html=1;exitX=0;exitY=0.5;exitDx=0;exitDy=0;entryX=1;entryY=0.5;entryDx=0;entryDy=0;endArrow=none;endFill=0;shape=link;" parent="1" source="eJS6RQ6NcchhUuec16Ap-11" target="eJS6RQ6NcchhUuec16Ap-12" edge="1">
          <mxGeometry relative="1" as="geometry">
            <mxPoint x="660" y="1046" as="sourcePoint" />
            <mxPoint x="485" y="1046" as="targetPoint" />
          </mxGeometry>
        </mxCell>
        <mxCell id="VN0yVY5uS7CeXmlR8bmi-10" value="N" style="edgeLabel;html=1;align=center;verticalAlign=middle;resizable=0;points=[];fontSize=17;fontStyle=1" parent="VN0yVY5uS7CeXmlR8bmi-4" vertex="1" connectable="0">
          <mxGeometry x="0.7662" y="-1" relative="1" as="geometry">
            <mxPoint x="18" y="2" as="offset" />
          </mxGeometry>
        </mxCell>
        <mxCell id="VN0yVY5uS7CeXmlR8bmi-6" style="edgeStyle=orthogonalEdgeStyle;rounded=0;orthogonalLoop=1;jettySize=auto;html=1;exitX=0;exitY=0.5;exitDx=0;exitDy=0;endArrow=none;endFill=0;" parent="1" source="eJS6RQ6NcchhUuec16Ap-13" target="SJhPn0XpCKg0EyMPji_I-2" edge="1">
          <mxGeometry relative="1" as="geometry">
            <mxPoint x="101.99999999999977" y="1046" as="sourcePoint" />
          </mxGeometry>
        </mxCell>
        <mxCell id="VN0yVY5uS7CeXmlR8bmi-8" value="1" style="edgeLabel;html=1;align=center;verticalAlign=middle;resizable=0;points=[];fontSize=17;fontStyle=1" parent="VN0yVY5uS7CeXmlR8bmi-6" vertex="1" connectable="0">
          <mxGeometry x="0.7058" relative="1" as="geometry">
            <mxPoint x="1" as="offset" />
          </mxGeometry>
        </mxCell>
        <mxCell id="VN0yVY5uS7CeXmlR8bmi-7" style="edgeStyle=orthogonalEdgeStyle;rounded=0;orthogonalLoop=1;jettySize=auto;html=1;exitX=1;exitY=0.5;exitDx=0;exitDy=0;entryX=0;entryY=0.5;entryDx=0;entryDy=0;endArrow=none;endFill=0;shape=link;" parent="1" source="eJS6RQ6NcchhUuec16Ap-13" target="eJS6RQ6NcchhUuec16Ap-12" edge="1">
          <mxGeometry relative="1" as="geometry">
            <mxPoint x="201.99999999999977" y="1046" as="sourcePoint" />
            <mxPoint x="365" y="1046" as="targetPoint" />
          </mxGeometry>
        </mxCell>
        <mxCell id="VN0yVY5uS7CeXmlR8bmi-9" value="N" style="edgeLabel;html=1;align=center;verticalAlign=middle;resizable=0;points=[];fontSize=17;fontStyle=1" parent="VN0yVY5uS7CeXmlR8bmi-7" vertex="1" connectable="0">
          <mxGeometry x="0.8286" relative="1" as="geometry">
            <mxPoint x="-24" y="1" as="offset" />
          </mxGeometry>
        </mxCell>
        <mxCell id="VN0yVY5uS7CeXmlR8bmi-18" style="edgeStyle=orthogonalEdgeStyle;rounded=0;orthogonalLoop=1;jettySize=auto;html=1;exitX=0;exitY=0.5;exitDx=0;exitDy=0;endArrow=none;endFill=0;" parent="1" source="VN0yVY5uS7CeXmlR8bmi-12" target="SJhPn0XpCKg0EyMPji_I-42" edge="1">
          <mxGeometry relative="1" as="geometry" />
        </mxCell>
        <mxCell id="VN0yVY5uS7CeXmlR8bmi-20" value="N" style="edgeLabel;html=1;align=center;verticalAlign=middle;resizable=0;points=[];fontSize=17;fontStyle=1" parent="VN0yVY5uS7CeXmlR8bmi-18" vertex="1" connectable="0">
          <mxGeometry x="0.7444" y="1" relative="1" as="geometry">
            <mxPoint x="23" as="offset" />
          </mxGeometry>
        </mxCell>
        <mxCell id="XNVu2m3pQ130uXgLmZe--64" style="edgeStyle=orthogonalEdgeStyle;rounded=0;orthogonalLoop=1;jettySize=auto;html=1;exitX=0.5;exitY=0;exitDx=0;exitDy=0;entryX=0.5;entryY=1;entryDx=0;entryDy=0;endArrow=none;endFill=0;" edge="1" parent="1" source="VN0yVY5uS7CeXmlR8bmi-12" target="XNVu2m3pQ130uXgLmZe--63">
          <mxGeometry relative="1" as="geometry" />
        </mxCell>
        <mxCell id="XNVu2m3pQ130uXgLmZe--66" style="edgeStyle=orthogonalEdgeStyle;rounded=0;orthogonalLoop=1;jettySize=auto;html=1;exitX=0.5;exitY=1;exitDx=0;exitDy=0;endArrow=none;endFill=0;" edge="1" parent="1" source="VN0yVY5uS7CeXmlR8bmi-12" target="XNVu2m3pQ130uXgLmZe--65">
          <mxGeometry relative="1" as="geometry" />
        </mxCell>
        <mxCell id="VN0yVY5uS7CeXmlR8bmi-12" value="Choose" style="rhombus;whiteSpace=wrap;html=1;shadow=0;fontStyle=1;fontSize=15;" parent="1" vertex="1">
          <mxGeometry x="700" y="-126" width="100" height="100" as="geometry" />
        </mxCell>
        <mxCell id="VN0yVY5uS7CeXmlR8bmi-17" style="edgeStyle=orthogonalEdgeStyle;rounded=0;orthogonalLoop=1;jettySize=auto;html=1;exitX=0;exitY=0.5;exitDx=0;exitDy=0;endArrow=none;endFill=0;shape=link;entryX=1;entryY=0.5;entryDx=0;entryDy=0;" parent="1" source="eJS6RQ6NcchhUuec16Ap-17" target="eJS6RQ6NcchhUuec16Ap-14" edge="1">
          <mxGeometry relative="1" as="geometry">
            <mxPoint x="485" y="-468" as="targetPoint" />
          </mxGeometry>
        </mxCell>
        <mxCell id="VN0yVY5uS7CeXmlR8bmi-22" value="N" style="edgeLabel;html=1;align=center;verticalAlign=middle;resizable=0;points=[];fontSize=17;fontStyle=1" parent="VN0yVY5uS7CeXmlR8bmi-17" vertex="1" connectable="0">
          <mxGeometry x="0.7734" y="1" relative="1" as="geometry">
            <mxPoint x="25" y="1" as="offset" />
          </mxGeometry>
        </mxCell>
        <mxCell id="VN0yVY5uS7CeXmlR8bmi-24" style="edgeStyle=orthogonalEdgeStyle;rounded=0;orthogonalLoop=1;jettySize=auto;html=1;exitX=0.5;exitY=1;exitDx=0;exitDy=0;endArrow=none;endFill=0;entryX=0.25;entryY=0;entryDx=0;entryDy=0;" parent="1" source="VN0yVY5uS7CeXmlR8bmi-23" target="eJS6RQ6NcchhUuec16Ap-15" edge="1">
          <mxGeometry relative="1" as="geometry">
            <mxPoint x="462" y="1314" as="targetPoint" />
          </mxGeometry>
        </mxCell>
        <mxCell id="VN0yVY5uS7CeXmlR8bmi-23" value="&lt;font style=&quot;font-size: 15px;&quot;&gt;&lt;b&gt;Date&lt;/b&gt;&lt;/font&gt;" style="ellipse;whiteSpace=wrap;html=1;" parent="1" vertex="1">
          <mxGeometry x="270" y="1225" width="120" height="80" as="geometry" />
        </mxCell>
        <mxCell id="eJS6RQ6NcchhUuec16Ap-2" value="&lt;font style=&quot;font-size: 15px;&quot;&gt;&lt;b&gt;&lt;u&gt;Report_ID&lt;/u&gt;&lt;/b&gt;&lt;/font&gt;" style="ellipse;whiteSpace=wrap;html=1;" parent="1" vertex="1">
          <mxGeometry x="455" y="1225" width="120" height="80" as="geometry" />
        </mxCell>
        <mxCell id="eJS6RQ6NcchhUuec16Ap-11" value="&lt;font style=&quot;font-size: 15px;&quot;&gt;&lt;b&gt;Place&lt;/b&gt;&lt;/font&gt;" style="shape=rhombus;double=1;perimeter=rhombusPerimeter;whiteSpace=wrap;html=1;align=center;" parent="1" vertex="1">
          <mxGeometry x="710" y="992.75" width="100" height="106.5" as="geometry" />
        </mxCell>
        <mxCell id="eJS6RQ6NcchhUuec16Ap-56" style="edgeStyle=orthogonalEdgeStyle;rounded=0;orthogonalLoop=1;jettySize=auto;html=1;exitX=0.5;exitY=0;exitDx=0;exitDy=0;entryX=0.5;entryY=1;entryDx=0;entryDy=0;endArrow=none;endFill=0;" parent="1" source="eJS6RQ6NcchhUuec16Ap-12" target="eJS6RQ6NcchhUuec16Ap-55" edge="1">
          <mxGeometry relative="1" as="geometry" />
        </mxCell>
        <mxCell id="XNVu2m3pQ130uXgLmZe--22" style="edgeStyle=orthogonalEdgeStyle;rounded=0;orthogonalLoop=1;jettySize=auto;html=1;exitX=0.75;exitY=0;exitDx=0;exitDy=0;entryX=0.5;entryY=1;entryDx=0;entryDy=0;endArrow=none;endFill=0;" edge="1" parent="1" source="eJS6RQ6NcchhUuec16Ap-12" target="XNVu2m3pQ130uXgLmZe--21">
          <mxGeometry relative="1" as="geometry" />
        </mxCell>
        <mxCell id="XNVu2m3pQ130uXgLmZe--25" style="edgeStyle=orthogonalEdgeStyle;rounded=0;orthogonalLoop=1;jettySize=auto;html=1;exitX=0.25;exitY=0;exitDx=0;exitDy=0;entryX=0.5;entryY=1;entryDx=0;entryDy=0;endArrow=none;endFill=0;" edge="1" parent="1" source="eJS6RQ6NcchhUuec16Ap-12" target="XNVu2m3pQ130uXgLmZe--23">
          <mxGeometry relative="1" as="geometry" />
        </mxCell>
        <mxCell id="eJS6RQ6NcchhUuec16Ap-12" value="&lt;b&gt;&lt;font style=&quot;font-size: 15px;&quot;&gt;Appointment&lt;/font&gt;&lt;/b&gt;" style="shape=ext;margin=3;double=1;whiteSpace=wrap;html=1;align=center;" parent="1" vertex="1">
          <mxGeometry x="365" y="1016" width="120" height="60" as="geometry" />
        </mxCell>
        <mxCell id="eJS6RQ6NcchhUuec16Ap-13" value="&lt;font style=&quot;font-size: 15px;&quot;&gt;&lt;b&gt;View&lt;/b&gt;&lt;/font&gt;" style="shape=rhombus;double=1;perimeter=rhombusPerimeter;whiteSpace=wrap;html=1;align=center;" parent="1" vertex="1">
          <mxGeometry x="88" y="992.75" width="100" height="106.5" as="geometry" />
        </mxCell>
        <mxCell id="eJS6RQ6NcchhUuec16Ap-20" style="edgeStyle=orthogonalEdgeStyle;rounded=0;orthogonalLoop=1;jettySize=auto;html=1;exitX=0.5;exitY=0;exitDx=0;exitDy=0;entryX=0.5;entryY=1;entryDx=0;entryDy=0;endArrow=none;endFill=0;" parent="1" source="eJS6RQ6NcchhUuec16Ap-14" target="eJS6RQ6NcchhUuec16Ap-19" edge="1">
          <mxGeometry relative="1" as="geometry" />
        </mxCell>
        <mxCell id="eJS6RQ6NcchhUuec16Ap-22" style="edgeStyle=orthogonalEdgeStyle;rounded=0;orthogonalLoop=1;jettySize=auto;html=1;exitX=0.25;exitY=0;exitDx=0;exitDy=0;entryX=1;entryY=0.5;entryDx=0;entryDy=0;endArrow=none;endFill=0;" parent="1" source="eJS6RQ6NcchhUuec16Ap-14" target="eJS6RQ6NcchhUuec16Ap-21" edge="1">
          <mxGeometry relative="1" as="geometry" />
        </mxCell>
        <mxCell id="eJS6RQ6NcchhUuec16Ap-24" style="edgeStyle=orthogonalEdgeStyle;rounded=0;orthogonalLoop=1;jettySize=auto;html=1;exitX=0;exitY=0.5;exitDx=0;exitDy=0;entryX=1;entryY=0.5;entryDx=0;entryDy=0;endArrow=none;endFill=0;" parent="1" source="eJS6RQ6NcchhUuec16Ap-14" target="eJS6RQ6NcchhUuec16Ap-23" edge="1">
          <mxGeometry relative="1" as="geometry" />
        </mxCell>
        <mxCell id="eJS6RQ6NcchhUuec16Ap-27" style="edgeStyle=orthogonalEdgeStyle;rounded=0;orthogonalLoop=1;jettySize=auto;html=1;exitX=0.25;exitY=1;exitDx=0;exitDy=0;entryX=1;entryY=0.5;entryDx=0;entryDy=0;endArrow=none;endFill=0;" parent="1" source="eJS6RQ6NcchhUuec16Ap-14" target="eJS6RQ6NcchhUuec16Ap-26" edge="1">
          <mxGeometry relative="1" as="geometry" />
        </mxCell>
        <mxCell id="eJS6RQ6NcchhUuec16Ap-14" value="&lt;b&gt;&lt;font style=&quot;font-size: 15px;&quot;&gt;Bill&lt;/font&gt;&lt;/b&gt;" style="shape=ext;margin=3;double=1;whiteSpace=wrap;html=1;align=center;" parent="1" vertex="1">
          <mxGeometry x="365" y="-498" width="120" height="60" as="geometry" />
        </mxCell>
        <mxCell id="XNVu2m3pQ130uXgLmZe--2" style="edgeStyle=orthogonalEdgeStyle;rounded=0;orthogonalLoop=1;jettySize=auto;html=1;exitX=0.25;exitY=1;exitDx=0;exitDy=0;endArrow=none;endFill=0;" edge="1" parent="1" source="eJS6RQ6NcchhUuec16Ap-15" target="XNVu2m3pQ130uXgLmZe--1">
          <mxGeometry relative="1" as="geometry" />
        </mxCell>
        <mxCell id="XNVu2m3pQ130uXgLmZe--4" style="edgeStyle=orthogonalEdgeStyle;rounded=0;orthogonalLoop=1;jettySize=auto;html=1;exitX=0.75;exitY=1;exitDx=0;exitDy=0;entryX=0.5;entryY=0;entryDx=0;entryDy=0;endArrow=none;endFill=0;" edge="1" parent="1" source="eJS6RQ6NcchhUuec16Ap-15" target="XNVu2m3pQ130uXgLmZe--3">
          <mxGeometry relative="1" as="geometry" />
        </mxCell>
        <mxCell id="eJS6RQ6NcchhUuec16Ap-15" value="&lt;b&gt;&lt;font style=&quot;font-size: 15px;&quot;&gt;Report&lt;/font&gt;&lt;/b&gt;" style="shape=ext;margin=3;double=1;whiteSpace=wrap;html=1;align=center;" parent="1" vertex="1">
          <mxGeometry x="365" y="1345" width="120" height="60" as="geometry" />
        </mxCell>
        <mxCell id="eJS6RQ6NcchhUuec16Ap-16" value="&lt;font style=&quot;font-size: 15px;&quot;&gt;&lt;b&gt;View&lt;/b&gt;&lt;/font&gt;" style="shape=rhombus;double=1;perimeter=rhombusPerimeter;whiteSpace=wrap;html=1;align=center;" parent="1" vertex="1">
          <mxGeometry x="1033" y="1321.75" width="100" height="106.5" as="geometry" />
        </mxCell>
        <mxCell id="eJS6RQ6NcchhUuec16Ap-17" value="&lt;span style=&quot;font-size: 15px;&quot;&gt;&lt;b&gt;Pays&lt;/b&gt;&lt;/span&gt;" style="shape=rhombus;double=1;perimeter=rhombusPerimeter;whiteSpace=wrap;html=1;align=center;" parent="1" vertex="1">
          <mxGeometry x="660" y="-521.25" width="100" height="106.5" as="geometry" />
        </mxCell>
        <mxCell id="eJS6RQ6NcchhUuec16Ap-18" value="&lt;font style=&quot;font-size: 15px;&quot;&gt;&lt;b&gt;Update&lt;/b&gt;&lt;/font&gt;" style="shape=rhombus;double=1;perimeter=rhombusPerimeter;whiteSpace=wrap;html=1;align=center;" parent="1" vertex="1">
          <mxGeometry x="-237" y="1321.75" width="100" height="106.5" as="geometry" />
        </mxCell>
        <mxCell id="eJS6RQ6NcchhUuec16Ap-19" value="&lt;font style=&quot;font-size: 15px;&quot;&gt;&lt;b&gt;&lt;u&gt;Bill_Number&lt;/u&gt;&lt;/b&gt;&lt;/font&gt;" style="ellipse;whiteSpace=wrap;html=1;" parent="1" vertex="1">
          <mxGeometry x="365" y="-672" width="120" height="80" as="geometry" />
        </mxCell>
        <mxCell id="eJS6RQ6NcchhUuec16Ap-21" value="&lt;font style=&quot;font-size: 15px;&quot;&gt;&lt;b&gt;Date&lt;/b&gt;&lt;/font&gt;" style="ellipse;whiteSpace=wrap;html=1;" parent="1" vertex="1">
          <mxGeometry x="210" y="-612" width="120" height="80" as="geometry" />
        </mxCell>
        <mxCell id="eJS6RQ6NcchhUuec16Ap-23" value="&lt;font style=&quot;font-size: 15px;&quot;&gt;&lt;b&gt;Amount&lt;/b&gt;&lt;/font&gt;" style="ellipse;whiteSpace=wrap;html=1;" parent="1" vertex="1">
          <mxGeometry x="150" y="-508" width="120" height="80" as="geometry" />
        </mxCell>
        <mxCell id="eJS6RQ6NcchhUuec16Ap-26" value="&lt;b style=&quot;font-size: 15px;&quot;&gt;Payment_Type&lt;/b&gt;" style="ellipse;shape=doubleEllipse;margin=3;whiteSpace=wrap;html=1;align=center;" parent="1" vertex="1">
          <mxGeometry x="220" y="-392" width="130" height="80" as="geometry" />
        </mxCell>
        <mxCell id="eJS6RQ6NcchhUuec16Ap-28" value="&lt;font style=&quot;font-size: 15px;&quot;&gt;&lt;b&gt;&lt;u&gt;Room_Number&lt;/u&gt;&lt;/b&gt;&lt;/font&gt;" style="ellipse;whiteSpace=wrap;html=1;" parent="1" vertex="1">
          <mxGeometry x="365" y="-268" width="120" height="80" as="geometry" />
        </mxCell>
        <mxCell id="eJS6RQ6NcchhUuec16Ap-30" value="&lt;span style=&quot;font-size: 15px;&quot;&gt;&lt;b&gt;&lt;u&gt;Type Name&lt;/u&gt;&lt;/b&gt;&lt;/span&gt;" style="ellipse;whiteSpace=wrap;html=1;" parent="1" vertex="1">
          <mxGeometry x="-145" y="-268" width="120" height="80" as="geometry" />
        </mxCell>
        <mxCell id="eJS6RQ6NcchhUuec16Ap-33" style="edgeStyle=orthogonalEdgeStyle;rounded=0;orthogonalLoop=1;jettySize=auto;html=1;exitX=0.5;exitY=0;exitDx=0;exitDy=0;entryX=0.5;entryY=1;entryDx=0;entryDy=0;endArrow=none;endFill=0;" parent="1" source="eJS6RQ6NcchhUuec16Ap-31" target="eJS6RQ6NcchhUuec16Ap-30" edge="1">
          <mxGeometry relative="1" as="geometry" />
        </mxCell>
        <mxCell id="eJS6RQ6NcchhUuec16Ap-35" style="edgeStyle=orthogonalEdgeStyle;rounded=0;orthogonalLoop=1;jettySize=auto;html=1;exitX=0.25;exitY=0;exitDx=0;exitDy=0;entryX=1;entryY=0.5;entryDx=0;entryDy=0;endArrow=none;endFill=0;" parent="1" source="eJS6RQ6NcchhUuec16Ap-31" target="eJS6RQ6NcchhUuec16Ap-34" edge="1">
          <mxGeometry relative="1" as="geometry" />
        </mxCell>
        <mxCell id="eJS6RQ6NcchhUuec16Ap-31" value="Room_Type" style="rounded=0;whiteSpace=wrap;html=1;shadow=0;fontStyle=1;fontSize=15;" parent="1" vertex="1">
          <mxGeometry x="-145" y="-106" width="120" height="60" as="geometry" />
        </mxCell>
        <mxCell id="eJS6RQ6NcchhUuec16Ap-34" value="&lt;font style=&quot;font-size: 15px;&quot;&gt;&lt;b&gt;Charge&lt;/b&gt;&lt;/font&gt;&lt;div&gt;&lt;font style=&quot;font-size: 15px;&quot;&gt;&lt;b&gt;_for_&lt;/b&gt;&lt;/font&gt;&lt;/div&gt;&lt;div&gt;&lt;font style=&quot;font-size: 15px;&quot;&gt;&lt;b&gt;One_Day&lt;/b&gt;&lt;/font&gt;&lt;/div&gt;" style="ellipse;whiteSpace=wrap;html=1;" parent="1" vertex="1">
          <mxGeometry x="-298" y="-206" width="120" height="80" as="geometry" />
        </mxCell>
        <mxCell id="eJS6RQ6NcchhUuec16Ap-37" style="edgeStyle=orthogonalEdgeStyle;rounded=0;orthogonalLoop=1;jettySize=auto;html=1;exitX=1;exitY=0.5;exitDx=0;exitDy=0;entryX=0;entryY=0.5;entryDx=0;entryDy=0;endArrow=none;endFill=0;shape=link;" parent="1" source="eJS6RQ6NcchhUuec16Ap-36" target="SJhPn0XpCKg0EyMPji_I-42" edge="1">
          <mxGeometry relative="1" as="geometry" />
        </mxCell>
        <mxCell id="XNVu2m3pQ130uXgLmZe--5" value="N" style="edgeLabel;html=1;align=center;verticalAlign=middle;resizable=0;points=[];fontSize=17;fontStyle=1" vertex="1" connectable="0" parent="eJS6RQ6NcchhUuec16Ap-37">
          <mxGeometry x="0.7631" y="1" relative="1" as="geometry">
            <mxPoint x="-21" y="2" as="offset" />
          </mxGeometry>
        </mxCell>
        <mxCell id="eJS6RQ6NcchhUuec16Ap-38" style="edgeStyle=orthogonalEdgeStyle;rounded=0;orthogonalLoop=1;jettySize=auto;html=1;exitX=0;exitY=0.5;exitDx=0;exitDy=0;endArrow=none;endFill=0;" parent="1" source="eJS6RQ6NcchhUuec16Ap-36" target="eJS6RQ6NcchhUuec16Ap-31" edge="1">
          <mxGeometry relative="1" as="geometry" />
        </mxCell>
        <mxCell id="XNVu2m3pQ130uXgLmZe--6" value="1" style="edgeLabel;html=1;align=center;verticalAlign=middle;resizable=0;points=[];fontSize=17;fontStyle=1" vertex="1" connectable="0" parent="eJS6RQ6NcchhUuec16Ap-38">
          <mxGeometry x="0.7734" y="-1" relative="1" as="geometry">
            <mxPoint x="21" y="1" as="offset" />
          </mxGeometry>
        </mxCell>
        <mxCell id="eJS6RQ6NcchhUuec16Ap-36" value="&lt;font style=&quot;font-size: 15px;&quot;&gt;&lt;b&gt;Has&lt;/b&gt;&lt;/font&gt;" style="shape=rhombus;double=1;perimeter=rhombusPerimeter;whiteSpace=wrap;html=1;align=center;" parent="1" vertex="1">
          <mxGeometry x="120" y="-129.25" width="100" height="106.5" as="geometry" />
        </mxCell>
        <mxCell id="eJS6RQ6NcchhUuec16Ap-39" value="&lt;font style=&quot;font-size: 15px;&quot;&gt;&lt;b&gt;Availability&lt;/b&gt;&lt;/font&gt;" style="ellipse;whiteSpace=wrap;html=1;" parent="1" vertex="1">
          <mxGeometry x="520" y="-21.75" width="120" height="80" as="geometry" />
        </mxCell>
        <mxCell id="eJS6RQ6NcchhUuec16Ap-43" value="&lt;font style=&quot;font-size: 15px;&quot;&gt;&lt;b&gt;&lt;u&gt;Patient_ID&lt;/u&gt;&lt;/b&gt;&lt;/font&gt;" style="ellipse;whiteSpace=wrap;html=1;" parent="1" vertex="1">
          <mxGeometry x="1200" y="827" width="120" height="80" as="geometry" />
        </mxCell>
        <mxCell id="eJS6RQ6NcchhUuec16Ap-44" value="&lt;font style=&quot;font-size: 15px;&quot;&gt;&lt;b&gt;Full_Name&lt;/b&gt;&lt;/font&gt;" style="ellipse;whiteSpace=wrap;html=1;" parent="1" vertex="1">
          <mxGeometry x="1275" y="907" width="120" height="80" as="geometry" />
        </mxCell>
        <mxCell id="eJS6RQ6NcchhUuec16Ap-47" value="&lt;font style=&quot;font-size: 15px;&quot;&gt;&lt;b&gt;DOB&lt;/b&gt;&lt;/font&gt;" style="ellipse;whiteSpace=wrap;html=1;" parent="1" vertex="1">
          <mxGeometry x="1290" y="1006" width="120" height="80" as="geometry" />
        </mxCell>
        <mxCell id="eJS6RQ6NcchhUuec16Ap-49" value="&lt;font style=&quot;font-size: 15px;&quot;&gt;&lt;b&gt;Address&lt;/b&gt;&lt;/font&gt;" style="ellipse;whiteSpace=wrap;html=1;" parent="1" vertex="1">
          <mxGeometry x="1270" y="1099.25" width="120" height="80" as="geometry" />
        </mxCell>
        <mxCell id="eJS6RQ6NcchhUuec16Ap-51" value="&lt;font style=&quot;font-size: 15px;&quot;&gt;&lt;b&gt;Mobile&lt;/b&gt;&lt;/font&gt;" style="ellipse;whiteSpace=wrap;html=1;" parent="1" vertex="1">
          <mxGeometry x="1170" y="1179.25" width="120" height="80" as="geometry" />
        </mxCell>
        <mxCell id="eJS6RQ6NcchhUuec16Ap-55" value="&lt;font style=&quot;font-size: 15px;&quot;&gt;&lt;b&gt;&lt;u&gt;Appointment&lt;/u&gt;&lt;/b&gt;&lt;/font&gt;&lt;div&gt;&lt;font style=&quot;font-size: 15px;&quot;&gt;&lt;b&gt;&lt;u&gt;_ID&lt;/u&gt;&lt;/b&gt;&lt;/font&gt;&lt;/div&gt;" style="ellipse;whiteSpace=wrap;html=1;" parent="1" vertex="1">
          <mxGeometry x="365" y="842" width="120" height="80" as="geometry" />
        </mxCell>
        <mxCell id="XNVu2m3pQ130uXgLmZe--1" value="&lt;font style=&quot;font-size: 15px;&quot;&gt;&lt;b&gt;Report_Type&lt;/b&gt;&lt;/font&gt;" style="ellipse;whiteSpace=wrap;html=1;" vertex="1" parent="1">
          <mxGeometry x="270" y="1450" width="120" height="80" as="geometry" />
        </mxCell>
        <mxCell id="XNVu2m3pQ130uXgLmZe--3" value="&lt;font style=&quot;font-size: 15px;&quot;&gt;&lt;b&gt;Description&lt;/b&gt;&lt;/font&gt;" style="ellipse;whiteSpace=wrap;html=1;" vertex="1" parent="1">
          <mxGeometry x="455" y="1450" width="120" height="80" as="geometry" />
        </mxCell>
        <mxCell id="XNVu2m3pQ130uXgLmZe--7" value="&lt;font style=&quot;font-size: 15px;&quot;&gt;&lt;b&gt;&lt;u&gt;DoctorID&lt;/u&gt;&lt;/b&gt;&lt;/font&gt;" style="ellipse;whiteSpace=wrap;html=1;" vertex="1" parent="1">
          <mxGeometry x="-357" y="1179.25" width="120" height="80" as="geometry" />
        </mxCell>
        <mxCell id="XNVu2m3pQ130uXgLmZe--8" value="&lt;font style=&quot;font-size: 15px;&quot;&gt;&lt;b&gt;NIC&lt;/b&gt;&lt;/font&gt;" style="ellipse;whiteSpace=wrap;html=1;" vertex="1" parent="1">
          <mxGeometry x="-100" y="852" width="120" height="80" as="geometry" />
        </mxCell>
        <mxCell id="XNVu2m3pQ130uXgLmZe--9" value="&lt;font style=&quot;font-size: 15px;&quot;&gt;&lt;b&gt;Full_Name&lt;/b&gt;&lt;/font&gt;" style="ellipse;whiteSpace=wrap;html=1;" vertex="1" parent="1">
          <mxGeometry x="-400" y="852" width="120" height="80" as="geometry" />
        </mxCell>
        <mxCell id="XNVu2m3pQ130uXgLmZe--10" value="&lt;font style=&quot;font-size: 15px;&quot;&gt;&lt;b&gt;Specilization&lt;/b&gt;&lt;/font&gt;" style="ellipse;whiteSpace=wrap;html=1;" vertex="1" parent="1">
          <mxGeometry x="-440" y="952" width="120" height="80" as="geometry" />
        </mxCell>
        <mxCell id="XNVu2m3pQ130uXgLmZe--11" value="&lt;font style=&quot;font-size: 15px;&quot;&gt;&lt;b&gt;License_No&lt;/b&gt;&lt;/font&gt;" style="ellipse;whiteSpace=wrap;html=1;" vertex="1" parent="1">
          <mxGeometry x="-440" y="1062" width="120" height="80" as="geometry" />
        </mxCell>
        <mxCell id="XNVu2m3pQ130uXgLmZe--12" value="&lt;font style=&quot;font-size: 15px;&quot;&gt;&lt;b&gt;Doc_Email&lt;/b&gt;&lt;/font&gt;" style="ellipse;whiteSpace=wrap;html=1;" vertex="1" parent="1">
          <mxGeometry x="-137" y="1179.25" width="120" height="80" as="geometry" />
        </mxCell>
        <mxCell id="XNVu2m3pQ130uXgLmZe--13" value="&lt;font style=&quot;font-size: 15px;&quot;&gt;&lt;b&gt;Mobile&lt;/b&gt;&lt;/font&gt;" style="ellipse;whiteSpace=wrap;html=1;" vertex="1" parent="1">
          <mxGeometry x="-80" y="1086" width="120" height="80" as="geometry" />
        </mxCell>
        <mxCell id="XNVu2m3pQ130uXgLmZe--21" value="&lt;span style=&quot;font-size: 15px;&quot;&gt;&lt;b&gt;Placed_Date&lt;/b&gt;&lt;/span&gt;" style="ellipse;whiteSpace=wrap;html=1;" vertex="1" parent="1">
          <mxGeometry x="500" y="892" width="120" height="80" as="geometry" />
        </mxCell>
        <mxCell id="XNVu2m3pQ130uXgLmZe--23" value="&lt;span style=&quot;font-size: 15px;&quot;&gt;&lt;b&gt;Given_Date&lt;/b&gt;&lt;/span&gt;" style="ellipse;whiteSpace=wrap;html=1;" vertex="1" parent="1">
          <mxGeometry x="230" y="892" width="120" height="80" as="geometry" />
        </mxCell>
        <mxCell id="XNVu2m3pQ130uXgLmZe--34" style="edgeStyle=orthogonalEdgeStyle;rounded=0;orthogonalLoop=1;jettySize=auto;html=1;exitX=0.25;exitY=0;exitDx=0;exitDy=0;endArrow=none;endFill=0;" edge="1" parent="1" source="XNVu2m3pQ130uXgLmZe--28" target="XNVu2m3pQ130uXgLmZe--33">
          <mxGeometry relative="1" as="geometry" />
        </mxCell>
        <mxCell id="XNVu2m3pQ130uXgLmZe--36" style="edgeStyle=orthogonalEdgeStyle;rounded=0;orthogonalLoop=1;jettySize=auto;html=1;exitX=0.25;exitY=1;exitDx=0;exitDy=0;entryX=0.5;entryY=0;entryDx=0;entryDy=0;endArrow=none;endFill=0;" edge="1" parent="1" source="XNVu2m3pQ130uXgLmZe--28" target="XNVu2m3pQ130uXgLmZe--35">
          <mxGeometry relative="1" as="geometry" />
        </mxCell>
        <mxCell id="XNVu2m3pQ130uXgLmZe--40" style="edgeStyle=orthogonalEdgeStyle;rounded=0;orthogonalLoop=1;jettySize=auto;html=1;exitX=0.75;exitY=1;exitDx=0;exitDy=0;endArrow=none;endFill=0;" edge="1" parent="1" source="XNVu2m3pQ130uXgLmZe--28" target="XNVu2m3pQ130uXgLmZe--39">
          <mxGeometry relative="1" as="geometry" />
        </mxCell>
        <mxCell id="XNVu2m3pQ130uXgLmZe--28" value="Department" style="rounded=0;whiteSpace=wrap;html=1;shadow=0;fontStyle=1;fontSize=15;" vertex="1" parent="1">
          <mxGeometry x="365" y="598" width="120" height="60" as="geometry" />
        </mxCell>
        <mxCell id="XNVu2m3pQ130uXgLmZe--32" style="edgeStyle=orthogonalEdgeStyle;rounded=0;orthogonalLoop=1;jettySize=auto;html=1;exitX=1;exitY=0.5;exitDx=0;exitDy=0;entryX=0;entryY=0.5;entryDx=0;entryDy=0;endArrow=none;endFill=0;" edge="1" parent="1" source="XNVu2m3pQ130uXgLmZe--30" target="XNVu2m3pQ130uXgLmZe--28">
          <mxGeometry relative="1" as="geometry" />
        </mxCell>
        <mxCell id="XNVu2m3pQ130uXgLmZe--37" value="1" style="edgeLabel;html=1;align=center;verticalAlign=middle;resizable=0;points=[];fontSize=17;fontStyle=1" vertex="1" connectable="0" parent="XNVu2m3pQ130uXgLmZe--32">
          <mxGeometry x="0.8247" y="2" relative="1" as="geometry">
            <mxPoint y="2" as="offset" />
          </mxGeometry>
        </mxCell>
        <mxCell id="XNVu2m3pQ130uXgLmZe--30" value="Works" style="rhombus;whiteSpace=wrap;html=1;shadow=0;fontStyle=1;fontSize=15;" vertex="1" parent="1">
          <mxGeometry x="-237" y="578" width="100" height="100" as="geometry" />
        </mxCell>
        <mxCell id="XNVu2m3pQ130uXgLmZe--33" value="&lt;font style=&quot;font-size: 15px;&quot;&gt;&lt;b&gt;&lt;u&gt;Department_&lt;/u&gt;&lt;/b&gt;&lt;/font&gt;&lt;div&gt;&lt;font style=&quot;font-size: 15px;&quot;&gt;&lt;b&gt;&lt;u&gt;ID&lt;/u&gt;&lt;/b&gt;&lt;/font&gt;&lt;/div&gt;" style="ellipse;whiteSpace=wrap;html=1;" vertex="1" parent="1">
          <mxGeometry x="245" y="473" width="120" height="80" as="geometry" />
        </mxCell>
        <mxCell id="XNVu2m3pQ130uXgLmZe--35" value="&lt;font style=&quot;font-size: 15px;&quot;&gt;&lt;b&gt;Department_&lt;/b&gt;&lt;/font&gt;&lt;div&gt;&lt;font style=&quot;font-size: 15px;&quot;&gt;&lt;b&gt;Name&lt;/b&gt;&lt;/font&gt;&lt;/div&gt;" style="ellipse;whiteSpace=wrap;html=1;" vertex="1" parent="1">
          <mxGeometry x="245" y="703" width="120" height="80" as="geometry" />
        </mxCell>
        <mxCell id="XNVu2m3pQ130uXgLmZe--39" value="&lt;span style=&quot;font-size: 15px;&quot;&gt;&lt;b&gt;Location&lt;/b&gt;&lt;/span&gt;" style="ellipse;whiteSpace=wrap;html=1;" vertex="1" parent="1">
          <mxGeometry x="485" y="703" width="120" height="80" as="geometry" />
        </mxCell>
        <mxCell id="XNVu2m3pQ130uXgLmZe--50" style="edgeStyle=orthogonalEdgeStyle;rounded=0;orthogonalLoop=1;jettySize=auto;html=1;exitX=0;exitY=0.5;exitDx=0;exitDy=0;endArrow=none;endFill=0;" edge="1" parent="1" source="XNVu2m3pQ130uXgLmZe--42" target="XNVu2m3pQ130uXgLmZe--49">
          <mxGeometry relative="1" as="geometry" />
        </mxCell>
        <mxCell id="XNVu2m3pQ130uXgLmZe--53" style="edgeStyle=orthogonalEdgeStyle;rounded=0;orthogonalLoop=1;jettySize=auto;html=1;exitX=0.25;exitY=1;exitDx=0;exitDy=0;entryX=1;entryY=0.5;entryDx=0;entryDy=0;endArrow=none;endFill=0;" edge="1" parent="1" source="XNVu2m3pQ130uXgLmZe--42" target="XNVu2m3pQ130uXgLmZe--51">
          <mxGeometry relative="1" as="geometry" />
        </mxCell>
        <mxCell id="XNVu2m3pQ130uXgLmZe--55" style="edgeStyle=orthogonalEdgeStyle;rounded=0;orthogonalLoop=1;jettySize=auto;html=1;exitX=0.75;exitY=1;exitDx=0;exitDy=0;entryX=0;entryY=0.5;entryDx=0;entryDy=0;endArrow=none;endFill=0;" edge="1" parent="1" source="XNVu2m3pQ130uXgLmZe--42" target="XNVu2m3pQ130uXgLmZe--54">
          <mxGeometry relative="1" as="geometry" />
        </mxCell>
        <mxCell id="XNVu2m3pQ130uXgLmZe--58" style="edgeStyle=orthogonalEdgeStyle;rounded=0;orthogonalLoop=1;jettySize=auto;html=1;exitX=1;exitY=0.5;exitDx=0;exitDy=0;entryX=0;entryY=0.5;entryDx=0;entryDy=0;endArrow=none;endFill=0;" edge="1" parent="1" source="XNVu2m3pQ130uXgLmZe--42" target="XNVu2m3pQ130uXgLmZe--56">
          <mxGeometry relative="1" as="geometry" />
        </mxCell>
        <mxCell id="XNVu2m3pQ130uXgLmZe--59" style="edgeStyle=orthogonalEdgeStyle;rounded=0;orthogonalLoop=1;jettySize=auto;html=1;exitX=0.5;exitY=0;exitDx=0;exitDy=0;endArrow=none;endFill=0;" edge="1" parent="1" source="XNVu2m3pQ130uXgLmZe--42" target="XNVu2m3pQ130uXgLmZe--57">
          <mxGeometry relative="1" as="geometry" />
        </mxCell>
        <mxCell id="XNVu2m3pQ130uXgLmZe--42" value="Nurse" style="rounded=0;whiteSpace=wrap;html=1;shadow=0;fontStyle=1;fontSize=15;" vertex="1" parent="1">
          <mxGeometry x="640" y="299" width="120" height="60" as="geometry" />
        </mxCell>
        <mxCell id="XNVu2m3pQ130uXgLmZe--45" style="edgeStyle=orthogonalEdgeStyle;rounded=0;orthogonalLoop=1;jettySize=auto;html=1;exitX=0.5;exitY=1;exitDx=0;exitDy=0;endArrow=none;endFill=0;entryX=1;entryY=0.5;entryDx=0;entryDy=0;" edge="1" parent="1" source="XNVu2m3pQ130uXgLmZe--44" target="XNVu2m3pQ130uXgLmZe--28">
          <mxGeometry relative="1" as="geometry" />
        </mxCell>
        <mxCell id="XNVu2m3pQ130uXgLmZe--47" value="1" style="edgeLabel;html=1;align=center;verticalAlign=middle;resizable=0;points=[];fontSize=17;fontStyle=1" vertex="1" connectable="0" parent="XNVu2m3pQ130uXgLmZe--45">
          <mxGeometry x="0.3559" relative="1" as="geometry">
            <mxPoint x="-28" as="offset" />
          </mxGeometry>
        </mxCell>
        <mxCell id="XNVu2m3pQ130uXgLmZe--46" style="edgeStyle=orthogonalEdgeStyle;rounded=0;orthogonalLoop=1;jettySize=auto;html=1;exitX=0.5;exitY=0;exitDx=0;exitDy=0;endArrow=none;endFill=0;shape=link;" edge="1" parent="1" source="XNVu2m3pQ130uXgLmZe--44" target="XNVu2m3pQ130uXgLmZe--42">
          <mxGeometry relative="1" as="geometry" />
        </mxCell>
        <mxCell id="XNVu2m3pQ130uXgLmZe--48" value="N" style="edgeLabel;html=1;align=center;verticalAlign=middle;resizable=0;points=[];fontSize=17;fontStyle=1" vertex="1" connectable="0" parent="XNVu2m3pQ130uXgLmZe--46">
          <mxGeometry x="0.6286" y="1" relative="1" as="geometry">
            <mxPoint y="12" as="offset" />
          </mxGeometry>
        </mxCell>
        <mxCell id="XNVu2m3pQ130uXgLmZe--44" value="Works" style="rhombus;whiteSpace=wrap;html=1;shadow=0;fontStyle=1;fontSize=15;" vertex="1" parent="1">
          <mxGeometry x="650" y="506" width="100" height="100" as="geometry" />
        </mxCell>
        <mxCell id="XNVu2m3pQ130uXgLmZe--49" value="&lt;span style=&quot;font-size: 15px;&quot;&gt;&lt;b&gt;&lt;u&gt;Nurse_ID&lt;/u&gt;&lt;/b&gt;&lt;/span&gt;" style="ellipse;whiteSpace=wrap;html=1;" vertex="1" parent="1">
          <mxGeometry x="455" y="289" width="120" height="80" as="geometry" />
        </mxCell>
        <mxCell id="XNVu2m3pQ130uXgLmZe--51" value="&lt;span style=&quot;font-size: 15px;&quot;&gt;&lt;b&gt;Full_Name&lt;/b&gt;&lt;/span&gt;" style="ellipse;whiteSpace=wrap;html=1;" vertex="1" parent="1">
          <mxGeometry x="520" y="379" width="120" height="80" as="geometry" />
        </mxCell>
        <mxCell id="XNVu2m3pQ130uXgLmZe--54" value="&lt;span style=&quot;font-size: 15px;&quot;&gt;&lt;b&gt;NIC&lt;/b&gt;&lt;/span&gt;" style="ellipse;whiteSpace=wrap;html=1;" vertex="1" parent="1">
          <mxGeometry x="760" y="379" width="120" height="80" as="geometry" />
        </mxCell>
        <mxCell id="XNVu2m3pQ130uXgLmZe--56" value="&lt;span style=&quot;font-size: 15px;&quot;&gt;&lt;b&gt;Mobile&lt;/b&gt;&lt;/span&gt;" style="ellipse;whiteSpace=wrap;html=1;" vertex="1" parent="1">
          <mxGeometry x="825" y="289" width="120" height="80" as="geometry" />
        </mxCell>
        <mxCell id="XNVu2m3pQ130uXgLmZe--57" value="&lt;span style=&quot;font-size: 15px;&quot;&gt;&lt;b&gt;License_No&lt;/b&gt;&lt;/span&gt;" style="ellipse;whiteSpace=wrap;html=1;" vertex="1" parent="1">
          <mxGeometry x="640" y="179" width="120" height="80" as="geometry" />
        </mxCell>
        <mxCell id="XNVu2m3pQ130uXgLmZe--61" value="&lt;font style=&quot;font-size: 15px;&quot;&gt;&lt;b&gt;NIC&lt;/b&gt;&lt;/font&gt;" style="ellipse;whiteSpace=wrap;html=1;" vertex="1" parent="1">
          <mxGeometry x="860" y="1090" width="120" height="80" as="geometry" />
        </mxCell>
        <mxCell id="XNVu2m3pQ130uXgLmZe--63" value="&lt;font style=&quot;font-size: 15px;&quot;&gt;&lt;b&gt;Admit_Date&lt;/b&gt;&lt;/font&gt;" style="ellipse;whiteSpace=wrap;html=1;" vertex="1" parent="1">
          <mxGeometry x="690" y="-250" width="120" height="80" as="geometry" />
        </mxCell>
        <mxCell id="XNVu2m3pQ130uXgLmZe--65" value="&lt;font style=&quot;font-size: 15px;&quot;&gt;&lt;b&gt;Discharge_&lt;/b&gt;&lt;/font&gt;&lt;div&gt;&lt;font style=&quot;font-size: 15px;&quot;&gt;&lt;b&gt;Date&lt;/b&gt;&lt;/font&gt;&lt;/div&gt;" style="ellipse;whiteSpace=wrap;html=1;" vertex="1" parent="1">
          <mxGeometry x="690" y="10" width="120" height="80" as="geometry" />
        </mxCell>
        <mxCell id="XNVu2m3pQ130uXgLmZe--67" value="&lt;b&gt;Age&lt;/b&gt;" style="ellipse;whiteSpace=wrap;html=1;align=center;dashed=1;" vertex="1" parent="1">
          <mxGeometry x="850" y="892" width="130" height="64" as="geometry" />
        </mxCell>
      </root>
    </mxGraphModel>
  </diagram>
</mxfile>
